<?xml version="1.0" encoding="UTF-8" standalone="no"?>
<!-- Created with Inkscape (http://www.inkscape.org/) -->
<svg
   xmlns:dc="http://purl.org/dc/elements/1.1/"
   xmlns:cc="http://creativecommons.org/ns#"
   xmlns:rdf="http://www.w3.org/1999/02/22-rdf-syntax-ns#"
   xmlns:svg="http://www.w3.org/2000/svg"
   xmlns="http://www.w3.org/2000/svg"
   xmlns:sodipodi="http://sodipodi.sourceforge.net/DTD/sodipodi-0.dtd"
   xmlns:inkscape="http://www.inkscape.org/namespaces/inkscape"
   id="svg2"
   sodipodi:version="0.32"
   inkscape:version="0.46"
   width="4212.9922"
   height="2979.9213"
   xml:space="preserve"
   sodipodi:docname="Funk_Bau_AG_2.svg"
   inkscape:output_extension="org.inkscape.output.svg.inkscape"><metadata
     id="metadata7"><rdf:RDF><cc:Work
         rdf:about=""><dc:format>image/svg+xml</dc:format><dc:type
           rdf:resource="http://purl.org/dc/dcmitype/StillImage" /></cc:Work></rdf:RDF></metadata><defs
     id="defs5"><inkscape:perspective
       sodipodi:type="inkscape:persp3d"
       inkscape:vp_x="0 : 526.18109 : 1"
       inkscape:vp_y="0 : 1000 : 0"
       inkscape:vp_z="744.09448 : 526.18109 : 1"
       inkscape:persp3d-origin="372.04724 : 350.78739 : 1"
       id="perspective9" /></defs><sodipodi:namedview
     inkscape:window-height="672"
     inkscape:window-width="640"
     inkscape:pageshadow="2"
     inkscape:pageopacity="0.0"
     guidetolerance="10.0"
     gridtolerance="10.0"
     objecttolerance="10.0"
     borderopacity="1.0"
     bordercolor="#666666"
     pagecolor="#ffffff"
     id="base"
     showgrid="false"
     showborder="false"
     inkscape:showpageshadow="false"
     inkscape:zoom="0.13268479"
     inkscape:cx="2106.4961"
     inkscape:cy="1489.9607"
     inkscape:window-x="170"
     inkscape:window-y="496"
     inkscape:current-layer="g11" /><g
     id="g11"
     inkscape:groupmode="layer"
     inkscape:label="Funk_Bau_AG_2"
     transform="matrix(1.25,0,0,-1.25,0,2979.9213)"><g
       id="g13"><path
         d="M 294.281,1760.628 L 3066.543,1760.628 L 3066.543,710.941 L 294.281,710.941 L 294.281,1760.628 z"
         style="fill:#f78e93;fill-opacity:1;fill-rule:evenodd;stroke:#231f20;stroke-opacity:1;stroke-width:0.216;stroke-linecap:butt;stroke-linejoin:miter;stroke-miterlimit:22.925585;stroke-dasharray:none"
         id="path15" /><path
         d="M 289.105,1765.804 L 3071.719,1765.804 L 3071.719,705.765 L 289.105,705.765 L 289.105,1765.804 z"
         style="fill:#ffffff;fill-opacity:1;fill-rule:evenodd;stroke:none"
         id="path17" /><path
         d="M 202.652,1418.96 L 497.496,1418.96 L 497.496,1544.242 C 497.496,1608.007 509.27,1677.742 554.227,1726.132 C 604.383,1780.191 669.578,1801.675 742.168,1801.675 C 815.094,1801.675 881.125,1780.542 931.594,1726.132 C 976.543,1677.738 988.285,1608 988.285,1544.242 L 988.285,1517.527 L 884.113,1517.527 L 884.113,1532.578 C 884.113,1629.628 851.684,1708.628 742.168,1708.628 C 633.152,1708.628 601.711,1628.656 601.711,1532.578 L 601.711,1418.96 L 845.352,1418.96 L 845.352,1418.886 L 861.195,1418.886 L 861.195,1111.601 C 861.195,1033.621 884.691,967.714 972.652,967.714 C 1060.145,967.714 1082.852,1034.476 1082.852,1111.601 L 1082.852,1418.886 L 1182.734,1418.886 L 1182.734,1101.609 C 1182.734,1045.867 1172.602,984.8 1133.918,942.023 C 1091.301,894.871 1035.59,875.343 972.652,875.343 C 909.594,875.343 853.109,894.46 810.137,942.023 C 771.449,984.8 761.305,1045.863 761.305,1101.609 L 761.305,1317.792 L 601.711,1317.792 L 601.711,1180.261 L 601.641,1180.261 L 601.641,882.398 L 497.496,882.398 L 497.496,1317.792 L 194.527,1317.792 C 196.188,994.046 459.23,732.011 783.371,732.011 C 1108.539,732.011 1372.238,995.707 1372.238,1320.875 C 1372.238,1646.039 1108.535,1909.73 783.371,1909.73 C 495.871,1909.73 250.023,1701.613 202.652,1418.96"
         style="fill:#ed1c24;fill-opacity:1;fill-rule:evenodd;stroke:none"
         id="path19" /><path
         d="M 289.105,1765.804 L 3071.719,1765.804 L 3071.719,705.765 L 289.105,705.765 L 289.105,1765.804 z"
         style="fill:none;stroke:#231f20;stroke-opacity:1;stroke-width:1.0001;stroke-linecap:butt;stroke-linejoin:miter;stroke-miterlimit:22.925585;stroke-dasharray:none"
         id="path21" /><path
         d="M 1434.793,1087.144 L 1480.344,1087.144 L 1480.344,1183.808 L 1533.195,1183.808 L 1533.195,1221.71 L 1480.344,1221.71 L 1480.344,1281.867 L 1536.672,1281.867 L 1536.672,1321.503 L 1434.793,1321.503 L 1434.793,1087.144 z"
         style="fill:#231f20;fill-opacity:1;fill-rule:nonzero;stroke:none"
         id="path23" /><path
         d="M 1569.707,1321.503 L 1569.707,1176.855 C 1569.707,1118.089 1588.832,1084.304 1637.859,1084.304 C 1683.062,1084.304 1705.664,1117.046 1705.664,1177.203 L 1705.664,1321.503 L 1660.113,1321.503 L 1660.113,1169.203 C 1660.113,1133.738 1650.727,1124.347 1637.512,1124.347 C 1625.688,1124.347 1615.258,1134.781 1615.258,1169.203 L 1615.258,1321.503 L 1569.707,1321.503 z"
         style="fill:#231f20;fill-opacity:1;fill-rule:nonzero;stroke:none"
         id="path25" /><path
         d="M 1784.945,1087.144 L 1784.945,1139.648 C 1784.945,1186.937 1783.207,1223.101 1782.164,1246.746 L 1782.859,1246.746 C 1788.074,1225.535 1798.852,1195.98 1806.504,1176.16 L 1842.316,1087.144 L 1884.043,1087.144 L 1884.043,1321.503 L 1844.055,1321.503 L 1844.055,1269.695 C 1844.055,1226.578 1847.188,1185.894 1848.578,1161.207 L 1847.883,1161.207 C 1841.273,1181.722 1829.801,1211.625 1822.848,1229.707 L 1786.684,1321.503 L 1744.957,1321.503 L 1744.957,1087.144 L 1784.945,1087.144 z"
         style="fill:#231f20;fill-opacity:1;fill-rule:nonzero;stroke:none"
         id="path27" /><path
         d="M 1924.379,1087.144 L 1969.93,1087.144 L 1969.93,1165.031 L 1980.363,1184.156 L 2014.438,1087.144 L 2064.164,1087.144 L 2010.961,1219.625 L 2063.469,1321.503 L 2013.395,1321.503 L 1982.102,1246.398 C 1978.277,1236.312 1974.453,1225.882 1970.625,1216.144 L 1969.93,1216.144 L 1969.93,1321.503 L 1924.379,1321.503 L 1924.379,1087.144 z"
         style="fill:#231f20;fill-opacity:1;fill-rule:nonzero;stroke:none"
         id="path29" /><path
         d="M 2139.27,1087.839 C 2149.703,1086.39 2164.305,1085.347 2181.691,1085.347 C 2220.984,1085.347 2244.629,1093.75 2258.539,1109.05 C 2269.664,1120.523 2275.926,1135.476 2275.926,1154.949 C 2275.926,1180.679 2261.32,1203.281 2234.199,1210.929 L 2234.199,1212.32 C 2257.496,1222.406 2268.273,1242.574 2268.273,1263.437 C 2268.273,1279.777 2263.059,1295.425 2250.539,1305.859 C 2234.199,1319.765 2212.988,1322.546 2191.082,1322.546 C 2171.262,1322.546 2153.18,1321.156 2139.27,1318.027 L 2139.27,1087.839 z M 2184.82,1287.082 C 2187.602,1288.125 2191.777,1288.472 2196.645,1288.472 C 2215.422,1288.472 2223.418,1275.257 2223.418,1258.218 C 2223.418,1239.097 2210.902,1225.187 2194.559,1225.187 L 2184.82,1225.187 L 2184.82,1287.082 z M 2184.82,1191.457 L 2194.559,1191.457 C 2212.641,1191.109 2228.633,1178.941 2228.633,1155.644 C 2228.633,1131.652 2213.336,1120.523 2194.906,1120.523 C 2190.734,1120.523 2187.602,1120.523 2184.82,1121.218 L 2184.82,1191.457 z"
         style="fill:#231f20;fill-opacity:1;fill-rule:nonzero;stroke:none"
         id="path31" /><path
         d="M 2386.5,1140.691 L 2396.582,1087.144 L 2440.742,1087.144 L 2395.191,1321.503 L 2340.598,1321.503 L 2289.832,1087.144 L 2333.992,1087.144 L 2344.426,1140.691 L 2386.5,1140.691 z M 2348.945,1176.16 L 2357.637,1224.839 C 2360.07,1238.402 2363.551,1262.742 2365.984,1278.386 L 2367.027,1278.386 C 2369.113,1262.742 2372.242,1239.445 2374.676,1225.187 L 2382.324,1176.16 L 2348.945,1176.16 z"
         style="fill:#231f20;fill-opacity:1;fill-rule:nonzero;stroke:none"
         id="path33" /><path
         d="M 2459.52,1321.503 L 2459.52,1176.855 C 2459.52,1118.089 2478.645,1084.304 2527.672,1084.304 C 2572.875,1084.304 2595.477,1117.046 2595.477,1177.203 L 2595.477,1321.503 L 2549.926,1321.503 L 2549.926,1169.203 C 2549.926,1133.738 2540.539,1124.347 2527.324,1124.347 C 2515.504,1124.347 2505.07,1134.781 2505.07,1169.203 L 2505.07,1321.503 L 2459.52,1321.503 z"
         style="fill:#231f20;fill-opacity:1;fill-rule:nonzero;stroke:none"
         id="path35" /><path
         d="M 2769.336,1140.691 L 2779.422,1087.144 L 2823.582,1087.144 L 2778.031,1321.503 L 2723.438,1321.503 L 2672.672,1087.144 L 2716.832,1087.144 L 2727.262,1140.691 L 2769.336,1140.691 z M 2731.785,1176.16 L 2740.477,1224.839 C 2742.91,1238.402 2746.387,1262.742 2748.82,1278.386 L 2749.863,1278.386 C 2751.953,1262.742 2755.082,1239.445 2757.516,1225.187 L 2765.164,1176.16 L 2731.785,1176.16 z"
         style="fill:#231f20;fill-opacity:1;fill-rule:nonzero;stroke:none"
         id="path37" /><path
         d="M 2973.797,1218.582 L 2910.859,1218.582 L 2910.859,1181.375 L 2931.723,1181.375 L 2931.723,1124.695 C 2929.984,1124 2926.855,1123.652 2922.68,1123.652 C 2901.469,1123.652 2879.562,1143.82 2879.562,1200.152 C 2879.562,1261.351 2904.254,1282.562 2935.199,1282.562 C 2946.672,1282.562 2955.367,1280.472 2961.973,1277.343 L 2969.973,1316.636 C 2962.668,1320.113 2949.457,1323.589 2931.723,1323.589 C 2882,1323.589 2833.316,1288.125 2832.273,1202.933 C 2831.578,1162.597 2842.359,1127.824 2862.527,1108.355 C 2878.172,1092.707 2898.34,1085 2925.117,1085 C 2942.152,1085 2963.711,1089.23 2973.797,1093.402 L 2973.797,1218.582 z"
         style="fill:#231f20;fill-opacity:1;fill-rule:nonzero;stroke:none"
         id="path39" /><path
         d="M 1524.953,885.019 L 1543.914,885.019 L 1536.094,1016.785 L 1513.613,1016.785 L 1501.297,963.414 C 1497.387,946.21 1494.453,932.523 1492.109,917.667 L 1491.719,917.667 C 1489.176,932.523 1485.852,946.406 1481.746,963.414 L 1469.039,1016.785 L 1446.949,1016.785 L 1438.152,885.019 L 1456.332,885.019 L 1458.68,935.261 C 1459.461,950.902 1460.242,968.3 1460.438,983.156 L 1461.023,983.156 C 1463.371,968.496 1466.891,952.074 1470.41,938.781 L 1483.312,886.582 L 1497.582,886.582 L 1511.266,940.148 C 1514.395,952.855 1517.914,968.691 1520.457,983.156 L 1521.043,983.156 C 1520.848,968.691 1521.629,950.707 1522.41,935.847 L 1524.953,885.019 z"
         style="fill:#231f20;fill-opacity:1;fill-rule:nonzero;stroke:none"
         id="path41" /><path
         d="M 1606.16,883.421 C 1629.23,883.421 1646.629,903.003 1646.629,952.66 C 1646.629,988.242 1635.68,1018.347 1608.117,1018.347 C 1581.527,1018.347 1566.672,990.585 1566.672,951.097 C 1566.672,911.214 1579.77,883.421 1605.965,883.421 L 1606.16,883.421 z M 1606.941,901.636 C 1593.062,901.636 1588.176,925.292 1588.371,951.292 C 1588.176,975.73 1593.062,1000.167 1606.941,1000.167 C 1621.02,1000.167 1624.93,975.535 1624.93,951.683 C 1624.93,925.292 1620.629,901.636 1607.137,901.636 L 1606.941,901.636 z"
         style="fill:#231f20;fill-opacity:1;fill-rule:nonzero;stroke:none"
         id="path43" /><path
         d="M 1672.902,885.019 L 1729.012,885.019 L 1729.012,902.613 L 1693.82,902.613 L 1693.82,1016.785 L 1672.902,1016.785 L 1672.902,885.019 z"
         style="fill:#231f20;fill-opacity:1;fill-rule:nonzero;stroke:none"
         id="path45" /><path
         d="M 1753.328,885.019 L 1809.438,885.019 L 1809.438,902.613 L 1774.246,902.613 L 1774.246,1016.785 L 1753.328,1016.785 L 1753.328,885.019 z"
         style="fill:#231f20;fill-opacity:1;fill-rule:nonzero;stroke:none"
         id="path47" /><path
         d="M 1833.758,1016.785 L 1833.758,885.019 L 1854.676,885.019 L 1854.676,1016.785 L 1833.758,1016.785 z"
         style="fill:#231f20;fill-opacity:1;fill-rule:nonzero;stroke:none"
         id="path49" /><path
         d="M 1880.754,889.32 C 1884.859,886.582 1894.828,883.812 1904.605,883.812 C 1928.258,883.812 1945.07,898.898 1945.07,922.554 C 1945.07,936.628 1938.426,949.335 1921.809,960.285 C 1908.32,968.886 1903.039,973.578 1903.039,983.746 C 1903.039,991.761 1908.711,999.773 1920.637,999.773 C 1927.672,999.773 1933.148,997.625 1936.859,995.277 L 1940.574,1013.265 C 1937.055,1015.414 1929.434,1017.957 1921.027,1017.957 C 1896.395,1017.957 1882.512,1001.73 1882.512,981.203 C 1882.512,966.933 1892.68,953.832 1907.34,944.449 C 1918.094,937.019 1924.543,930.96 1924.543,920.402 C 1924.543,909.457 1917.508,902.027 1904.605,902.027 C 1897.762,902.027 1889.16,904.375 1884.273,907.304 L 1880.754,889.32 z"
         style="fill:#231f20;fill-opacity:1;fill-rule:nonzero;stroke:none"
         id="path51" /><path
         d="M 2084.852,885.019 L 2105.77,885.019 L 2105.77,941.91 L 2136.852,941.91 L 2136.852,959.308 L 2105.77,959.308 L 2105.77,998.601 L 2139.004,998.601 L 2139.004,1016.785 L 2084.852,1016.785 L 2084.852,885.019 z"
         style="fill:#231f20;fill-opacity:1;fill-rule:nonzero;stroke:none"
         id="path53" /><path
         d="M 2166.059,1016.785 L 2166.059,932.523 C 2166.059,899.878 2177.789,883.421 2201.836,883.421 C 2224.512,883.421 2238.004,899.484 2238.004,933.503 L 2238.004,1016.785 L 2217.086,1016.785 L 2217.086,929.984 C 2217.086,908.48 2211.023,901.832 2201.836,901.832 C 2193.625,901.832 2186.977,908.675 2186.977,929.984 L 2186.977,1016.785 L 2166.059,1016.785 z"
         style="fill:#231f20;fill-opacity:1;fill-rule:nonzero;stroke:none"
         id="path55" /><path
         d="M 2288.324,885.019 L 2288.324,921.773 C 2288.324,949.14 2287.738,967.714 2286.758,982.96 L 2287.148,982.96 C 2290.863,969.082 2296.73,953.246 2301.617,941.125 L 2324.098,885.019 L 2343.258,885.019 L 2343.258,1016.785 L 2324.883,1016.785 L 2324.883,979.445 C 2324.883,955.984 2326.055,935.652 2327.227,918.839 L 2326.836,918.839 C 2322.73,931.546 2316.082,948.554 2311.391,960.48 L 2289.105,1016.785 L 2269.945,1016.785 L 2269.945,885.019 L 2288.324,885.019 z"
         style="fill:#231f20;fill-opacity:1;fill-rule:nonzero;stroke:none"
         id="path57" /><path
         d="M 2375.594,885.019 L 2396.316,885.019 L 2396.316,931.937 L 2402.961,943.667 L 2425.641,885.019 L 2448.316,885.019 L 2417.039,959.894 L 2447.73,1016.785 L 2424.66,1016.785 L 2403.938,972.601 C 2401.594,967.128 2399.246,961.457 2396.902,955.984 L 2396.316,955.984 L 2396.316,1016.785 L 2375.594,1016.785 L 2375.594,885.019 z"
         style="fill:#231f20;fill-opacity:1;fill-rule:nonzero;stroke:none"
         id="path59" /><path
         d="M 2469.703,885.41 C 2474.785,884.597 2481.824,884.007 2491.598,884.007 C 2510.562,884.007 2523.465,888.148 2531.09,896.75 C 2537.148,903.199 2540.668,911.8 2540.668,922.75 C 2540.668,938.585 2532.066,951.097 2517.016,955.203 L 2517.016,955.789 C 2529.723,961.261 2536.367,972.406 2536.367,984.722 C 2536.367,994.105 2533.438,1002.511 2526.984,1008.179 C 2518.969,1015.414 2507.629,1017.371 2495.703,1017.371 C 2485.734,1017.371 2476.742,1016.39 2469.703,1014.828 L 2469.703,885.41 z M 2490.426,1000.753 C 2492.188,1001.339 2494.727,1001.535 2497.855,1001.535 C 2510.758,1001.535 2515.84,993.324 2515.84,982.375 C 2515.84,970.449 2507.238,961.847 2496.488,961.847 L 2490.426,961.847 L 2490.426,1000.753 z M 2490.426,946.21 L 2496.488,946.21 C 2508.41,946.21 2519.164,938.39 2519.164,922.945 C 2519.164,907.894 2509.781,900.269 2497.074,900.269 C 2494.336,900.269 2492.188,900.464 2490.426,900.855 L 2490.426,946.21 z"
         style="fill:#231f20;fill-opacity:1;fill-rule:nonzero;stroke:none"
         id="path61" /><path
         d="M 2612.297,919.23 L 2619.336,885.019 L 2639.668,885.019 L 2612.492,1016.785 L 2588.059,1016.785 L 2558.73,885.019 L 2579.062,885.019 L 2586.102,919.23 L 2612.297,919.23 z M 2588.449,935.652 L 2594.312,965.757 C 2595.875,973.968 2597.832,986.675 2599.199,995.867 L 2599.785,995.867 C 2601.156,986.675 2602.914,974.554 2604.672,965.953 L 2610.148,935.652 L 2588.449,935.652 z"
         style="fill:#231f20;fill-opacity:1;fill-rule:nonzero;stroke:none"
         id="path63" /><path
         d="M 2660.664,1016.785 L 2660.664,932.523 C 2660.664,899.878 2672.395,883.421 2696.438,883.421 C 2719.117,883.421 2732.605,899.484 2732.605,933.503 L 2732.605,1016.785 L 2711.688,1016.785 L 2711.688,929.984 C 2711.688,908.48 2705.629,901.832 2696.438,901.832 C 2688.23,901.832 2681.582,908.675 2681.582,929.984 L 2681.582,1016.785 L 2660.664,1016.785 z"
         style="fill:#231f20;fill-opacity:1;fill-rule:nonzero;stroke:none"
         id="path65" /><path
         d="M 2770.609,883.421 C 2778.234,883.421 2783.316,889.125 2783.316,897.921 C 2783.316,906.914 2777.844,912.39 2770.609,912.39 C 2763.77,912.39 2757.902,906.328 2757.902,897.921 C 2757.902,889.125 2763.574,883.421 2770.414,883.421 L 2770.609,883.421 z"
         style="fill:#231f20;fill-opacity:1;fill-rule:nonzero;stroke:none"
         id="path67" /><path
         d="M 2869.414,904.765 C 2866.285,903.589 2861.398,902.417 2856.512,902.417 C 2840.676,902.417 2827.383,915.125 2827.383,950.511 C 2827.383,986.48 2842.043,999.578 2856.316,999.578 C 2862.57,999.578 2865.699,998.406 2868.828,996.843 L 2872.738,1014.632 C 2870.195,1016.195 2864.137,1017.957 2855.535,1017.957 C 2832.074,1017.957 2805.293,999.773 2805.293,949.14 C 2805.293,908.48 2822.496,883.812 2852.602,883.812 C 2861.203,883.812 2868.047,885.214 2871.957,887.171 L 2869.414,904.765 z"
         style="fill:#231f20;fill-opacity:1;fill-rule:nonzero;stroke:none"
         id="path69" /><path
         d="M 2895.883,1016.785 L 2895.883,885.019 L 2916.801,885.019 L 2916.801,943.082 L 2948.082,943.082 L 2948.082,885.019 L 2969,885.019 L 2969,1016.785 L 2948.082,1016.785 L 2948.082,962.238 L 2916.801,962.238 L 2916.801,1016.785 L 2895.883,1016.785 z"
         style="fill:#231f20;fill-opacity:1;fill-rule:nonzero;stroke:none"
         id="path71" /></g></g></svg>