<?xml version="1.0" encoding="UTF-8" standalone="no"?>
<!-- Created with Inkscape (http://www.inkscape.org/) -->
<svg
   xmlns:dc="http://purl.org/dc/elements/1.1/"
   xmlns:cc="http://creativecommons.org/ns#"
   xmlns:rdf="http://www.w3.org/1999/02/22-rdf-syntax-ns#"
   xmlns:svg="http://www.w3.org/2000/svg"
   xmlns="http://www.w3.org/2000/svg"
   xmlns:sodipodi="http://sodipodi.sourceforge.net/DTD/sodipodi-0.dtd"
   xmlns:inkscape="http://www.inkscape.org/namespaces/inkscape"
   id="svg2"
   sodipodi:version="0.32"
   inkscape:version="0.46"
   width="4212.9921"
   height="2979.9213"
   xml:space="preserve"
   sodipodi:docname="Funk_Bau_AG.svg"
   inkscape:output_extension="org.inkscape.output.svg.inkscape"><metadata
     id="metadata7"><rdf:RDF><cc:Work
         rdf:about=""><dc:format>image/svg+xml</dc:format><dc:type
           rdf:resource="http://purl.org/dc/dcmitype/StillImage" /></cc:Work></rdf:RDF></metadata><defs
     id="defs5"><inkscape:perspective
       sodipodi:type="inkscape:persp3d"
       inkscape:vp_x="0 : 526.18109 : 1"
       inkscape:vp_y="0 : 1000 : 0"
       inkscape:vp_z="744.09448 : 526.18109 : 1"
       inkscape:persp3d-origin="372.04724 : 350.78739 : 1"
       id="perspective9" /><clipPath
       clipPathUnits="userSpaceOnUse"
       id="clipPath21"><path
         d="M 289.1072,1765.8034 L 3071.7207,1765.8034 L 3071.7207,705.7647 L 289.1072,705.7647 L 289.1072,1765.8034 z"
         clip-rule="evenodd"
         id="path23" /></clipPath></defs><sodipodi:namedview
     inkscape:window-height="672"
     inkscape:window-width="640"
     inkscape:pageshadow="2"
     inkscape:pageopacity="0.0"
     guidetolerance="10.0"
     gridtolerance="10.0"
     objecttolerance="10.0"
     borderopacity="1.0"
     bordercolor="#666666"
     pagecolor="#ffffff"
     id="base"
     showgrid="false"
     inkscape:zoom="0.13268479"
     inkscape:cx="2106.4961"
     inkscape:cy="1489.9607"
     inkscape:window-x="170"
     inkscape:window-y="496"
     inkscape:current-layer="g11"
     showborder="false"
     inkscape:showpageshadow="false" /><g
     id="g11"
     inkscape:groupmode="layer"
     inkscape:label="Funk_Bau_AG"
     transform="matrix(1.25,0,0,-1.25,0,2979.9213)"><path
       d="M 294.2819,1760.6279 L 3066.5438,1760.6279 L 3066.5438,710.9396 L 294.2819,710.9396 L 294.2819,1760.6279 z"
       style="fill:#f78e93;fill-opacity:1;fill-rule:evenodd;stroke:#231f20;stroke-opacity:1;stroke-width:0.216;stroke-linecap:butt;stroke-linejoin:miter;stroke-miterlimit:22.92558563;stroke-dasharray:none"
       id="path13" /><path
       d="M 289.1072,1765.8034 L 3071.7207,1765.8034 L 3071.7207,705.7647 L 289.1072,705.7647 L 289.1072,1765.8034 z"
       style="fill:#ffffff;fill-opacity:1;fill-rule:evenodd;stroke:none"
       id="path15" /><g
       id="g17"><g
         id="g19"
         clip-path="url(#clipPath21)"><path
           d="M 202.6522,1418.9593 L 497.4959,1418.9593 L 497.4959,1544.2418 C 497.4959,1608.0083 509.271,1677.7409 554.2285,1726.1314 C 604.3816,1780.1923 669.5782,1801.6761 742.1698,1801.6761 C 815.0944,1801.6761 881.1235,1780.5419 931.595,1726.1342 C 976.5411,1677.738 988.285,1608.0001 988.285,1544.2418 L 988.285,1517.5253 L 884.1138,1517.5253 L 884.1138,1532.5773 C 884.1138,1629.6287 851.6818,1708.6292 742.1698,1708.6292 C 633.1527,1708.6292 601.71,1628.6567 601.71,1532.5773 L 601.71,1418.9593 L 845.352,1418.9593 L 845.352,1418.8853 L 861.1946,1418.8853 L 861.1946,1111.5992 C 861.1946,1033.619 884.6906,967.7149 972.6528,967.7149 C 1060.1436,967.7149 1082.8525,1034.477 1082.8525,1111.5992 L 1082.8525,1418.8853 L 1182.7349,1418.8853 L 1182.7349,1101.6094 C 1182.7349,1045.8658 1172.6028,984.7993 1133.9178,942.0245 C 1091.3023,894.8704 1035.5899,875.3417 972.6528,875.3417 C 909.5939,875.3417 853.1113,894.4611 810.1349,942.0245 C 771.45,984.8018 761.3062,1045.8629 761.3062,1101.6094 L 761.3062,1317.7925 L 601.71,1317.7925 L 601.71,1180.2603 L 601.6388,1180.2603 L 601.6388,882.3991 L 497.4959,882.3991 L 497.4959,1317.7925 L 194.5261,1317.7925 C 196.1861,994.0476 459.2319,732.0115 783.3699,732.0115 C 1108.5372,732.0115 1372.2398,995.7076 1372.2398,1320.8734 C 1372.2398,1646.0393 1108.5344,1909.7291 783.3699,1909.7291 C 495.8705,1909.7291 250.0223,1701.6123 202.6522,1418.9593"
           style="fill:#ed1c24;fill-opacity:1;fill-rule:evenodd;stroke:none"
           id="path25" /></g></g><path
       d="M 289.1072,1765.8034 L 3071.7207,1765.8034 L 3071.7207,705.7647 L 289.1072,705.7647 L 289.1072,1765.8034 z"
       style="fill:none;stroke:#231f20;stroke-opacity:1;stroke-width:1.0001;stroke-linecap:butt;stroke-linejoin:miter;stroke-miterlimit:22.92558563;stroke-dasharray:none"
       id="path27" /><path
       d="M 1434.7911,1087.1425 L 1480.3424,1087.1425 L 1480.3424,1183.8084 L 1533.1955,1183.8084 L 1533.1955,1221.7096 L 1480.3424,1221.7096 L 1480.3424,1281.8648 L 1536.6728,1281.8648 L 1536.6728,1321.5047 L 1434.7911,1321.5047 L 1434.7911,1087.1425 z"
       style="fill:#231f20;fill-opacity:1;fill-rule:nonzero;stroke:none"
       id="path29" /><path
       d="M 1569.706,1321.5047 L 1569.706,1176.8539 C 1569.706,1118.0894 1588.8305,1084.303 1637.8591,1084.303 C 1683.0626,1084.303 1705.6641,1117.0463 1705.6641,1177.2017 L 1705.6641,1321.5047 L 1660.1131,1321.5047 L 1660.1131,1169.204 C 1660.1131,1133.7369 1650.7247,1124.3483 1637.5116,1124.3483 C 1625.6891,1124.3483 1615.2576,1134.7801 1615.2576,1169.204 L 1615.2576,1321.5047 L 1569.706,1321.5047 z"
       style="fill:#231f20;fill-opacity:1;fill-rule:nonzero;stroke:none"
       id="path31" /><path
       d="M 1784.9443,1087.1425 L 1784.9443,1139.648 C 1784.9443,1186.9379 1783.2059,1223.1006 1782.1627,1246.7452 L 1782.858,1246.7452 C 1788.0738,1225.5344 1798.8531,1195.9784 1806.503,1176.1586 L 1842.3179,1087.1425 L 1884.0441,1087.1425 L 1884.0441,1321.5047 L 1844.0566,1321.5047 L 1844.0566,1269.6948 C 1844.0566,1226.5775 1847.1861,1185.8947 1848.577,1161.2066 L 1847.8814,1161.2066 C 1841.2747,1181.7218 1829.8001,1211.6256 1822.8458,1229.707 L 1786.6831,1321.5047 L 1744.9566,1321.5047 L 1744.9566,1087.1425 L 1784.9443,1087.1425 z"
       style="fill:#231f20;fill-opacity:1;fill-rule:nonzero;stroke:none"
       id="path33" /><path
       d="M 1924.3797,1087.1425 L 1969.9311,1087.1425 L 1969.9311,1165.0314 L 1980.3626,1184.1559 L 2014.439,1087.1425 L 2064.1629,1087.1425 L 2010.962,1219.6233 L 2063.4673,1321.5047 L 2013.3958,1321.5047 L 1982.1013,1246.3977 C 1978.2763,1236.3137 1974.4515,1225.8822 1970.6267,1216.146 L 1969.9311,1216.146 L 1969.9311,1321.5047 L 1924.3797,1321.5047 L 1924.3797,1087.1425 z"
       style="fill:#231f20;fill-opacity:1;fill-rule:nonzero;stroke:none"
       id="path35" /><path
       d="M 2139.2702,1087.8381 C 2149.7017,1086.3893 2164.3058,1085.3461 2181.6921,1085.3461 C 2220.9843,1085.3461 2244.6292,1093.7492 2258.538,1109.0489 C 2269.6648,1120.5235 2275.924,1135.4754 2275.924,1154.9477 C 2275.924,1180.6787 2261.3196,1203.2804 2234.1977,1210.9303 L 2234.1977,1212.3213 C 2257.4948,1222.4049 2268.2741,1242.5726 2268.2741,1263.4359 C 2268.2741,1279.7785 2263.0584,1295.426 2250.5403,1305.8575 C 2234.1977,1319.7662 2212.9869,1322.5479 2191.0805,1322.5479 C 2171.2603,1322.5479 2153.179,1321.1569 2139.2702,1318.0275 L 2139.2702,1087.8381 z M 2184.8216,1287.0805 C 2187.6035,1288.1237 2191.7761,1288.4715 2196.644,1288.4715 C 2215.4207,1288.4715 2223.4184,1275.2583 2223.4184,1258.2201 C 2223.4184,1239.0956 2210.9006,1225.1869 2194.5577,1225.1869 L 2184.8216,1225.1869 L 2184.8216,1287.0805 z M 2184.8216,1191.458 L 2194.5577,1191.458 C 2212.6391,1191.1105 2228.6341,1178.9402 2228.6341,1155.6431 C 2228.6341,1131.6506 2213.3344,1120.5235 2194.9055,1120.5235 C 2190.7329,1120.5235 2187.6035,1120.5235 2184.8216,1121.2189 L 2184.8216,1191.458 z"
       style="fill:#231f20;fill-opacity:1;fill-rule:nonzero;stroke:none"
       id="path37" /><path
       d="M 2386.4984,1140.6912 L 2396.5824,1087.1425 L 2440.7425,1087.1425 L 2395.1914,1321.5047 L 2340.5995,1321.5047 L 2289.8324,1087.1425 L 2333.9928,1087.1425 L 2344.4246,1140.6912 L 2386.4984,1140.6912 z M 2348.945,1176.1586 L 2357.638,1224.8391 C 2360.0718,1238.4 2363.5491,1262.7403 2365.9832,1278.3878 L 2367.0264,1278.3878 C 2369.1127,1262.7403 2372.2421,1239.4431 2374.6762,1225.1869 L 2382.3258,1176.1586 L 2348.945,1176.1586 z"
       style="fill:#231f20;fill-opacity:1;fill-rule:nonzero;stroke:none"
       id="path39" /><path
       d="M 2459.5191,1321.5047 L 2459.5191,1176.8539 C 2459.5191,1118.0894 2478.6437,1084.303 2527.6723,1084.303 C 2572.8758,1084.303 2595.4773,1117.0463 2595.4773,1177.2017 L 2595.4773,1321.5047 L 2549.9262,1321.5047 L 2549.9262,1169.204 C 2549.9262,1133.7369 2540.5379,1124.3483 2527.3247,1124.3483 C 2515.5023,1124.3483 2505.0708,1134.7801 2505.0708,1169.204 L 2505.0708,1321.5047 L 2459.5191,1321.5047 z"
       style="fill:#231f20;fill-opacity:1;fill-rule:nonzero;stroke:none"
       id="path41" /><path
       d="M 2769.3371,1140.6912 L 2779.4211,1087.1425 L 2823.5812,1087.1425 L 2778.0301,1321.5047 L 2723.4383,1321.5047 L 2672.6712,1087.1425 L 2716.8316,1087.1425 L 2727.2633,1140.6912 L 2769.3371,1140.6912 z M 2731.7837,1176.1586 L 2740.4768,1224.8391 C 2742.9106,1238.4 2746.3878,1262.7403 2748.822,1278.3878 L 2749.8651,1278.3878 C 2751.9514,1262.7403 2755.0809,1239.4431 2757.515,1225.1869 L 2765.1645,1176.1586 L 2731.7837,1176.1586 z"
       style="fill:#231f20;fill-opacity:1;fill-rule:nonzero;stroke:none"
       id="path43" /><path
       d="M 2973.7959,1218.5802 L 2910.8588,1218.5802 L 2910.8588,1181.3743 L 2931.7218,1181.3743 L 2931.7218,1124.6961 C 2929.9833,1124.0008 2926.8539,1123.653 2922.6813,1123.653 C 2901.4705,1123.653 2879.564,1143.8206 2879.564,1200.151 C 2879.564,1261.3496 2904.2521,1282.5604 2935.1991,1282.5604 C 2946.6737,1282.5604 2955.3667,1280.4741 2961.9734,1277.3446 L 2969.9708,1316.6368 C 2962.6688,1320.1138 2949.4556,1323.591 2931.7218,1323.591 C 2881.9981,1323.591 2833.3174,1288.1237 2832.2742,1202.9329 C 2831.5786,1162.5973 2842.3579,1127.8256 2862.5255,1108.3533 C 2878.1734,1092.706 2898.341,1084.9983 2925.1154,1084.9983 C 2942.1533,1084.9983 2963.7119,1089.2288 2973.7959,1093.4016 L 2973.7959,1218.5802 z"
       style="fill:#231f20;fill-opacity:1;fill-rule:nonzero;stroke:none"
       id="path45" /><path
       d="M 1524.9523,885.0192 L 1543.9153,885.0192 L 1536.0953,1016.7829 L 1513.6135,1016.7829 L 1501.2972,963.4127 C 1497.3874,946.209 1494.455,932.5244 1492.109,917.6669 L 1491.7181,917.6669 C 1489.1766,932.5244 1485.8532,946.4046 1481.7475,963.4127 L 1469.0404,1016.7829 L 1446.9494,1016.7829 L 1438.1521,885.0192 L 1456.3332,885.0192 L 1458.6792,935.2613 C 1459.461,950.9009 1460.2431,968.2999 1460.4386,983.1577 L 1461.0251,983.1577 C 1463.3711,968.4955 1466.89,952.0739 1470.4089,938.7802 L 1483.3114,886.5831 L 1497.583,886.5831 L 1511.2675,940.1488 C 1514.3956,952.8559 1517.9145,968.6911 1520.4557,983.1577 L 1521.0422,983.1577 C 1520.8469,968.6911 1521.6287,950.7056 1522.4108,935.8478 L 1524.9523,885.0192 z"
       style="fill:#231f20;fill-opacity:1;fill-rule:nonzero;stroke:none"
       id="path47" /><path
       d="M 1606.161,883.4227 C 1629.2296,883.4227 1646.6287,903.0047 1646.6287,952.6603 C 1646.6287,988.2405 1635.681,1018.3467 1608.1157,1018.3467 C 1581.5285,1018.3467 1566.671,990.5865 1566.671,951.0965 C 1566.671,911.2156 1579.769,883.4227 1605.9654,883.4227 L 1606.161,883.4227 z M 1606.9428,901.6362 C 1593.0626,901.6362 1588.1754,925.2913 1588.3707,951.2921 C 1588.1754,975.729 1593.0626,1000.1656 1606.9428,1000.1656 C 1621.0188,1000.1656 1624.9286,975.5334 1624.9286,951.683 C 1624.9286,925.2913 1620.6279,901.6362 1607.1384,901.6362 L 1606.9428,901.6362 z"
       style="fill:#231f20;fill-opacity:1;fill-rule:nonzero;stroke:none"
       id="path49" /><path
       d="M 1672.903,885.0192 L 1729.0103,885.0192 L 1729.0103,902.6138 L 1693.821,902.6138 L 1693.821,1016.7829 L 1672.903,1016.7829 L 1672.903,885.0192 z"
       style="fill:#231f20;fill-opacity:1;fill-rule:nonzero;stroke:none"
       id="path51" /><path
       d="M 1753.3298,885.0192 L 1809.4371,885.0192 L 1809.4371,902.6138 L 1774.2478,902.6138 L 1774.2478,1016.7829 L 1753.3298,1016.7829 L 1753.3298,885.0192 z"
       style="fill:#231f20;fill-opacity:1;fill-rule:nonzero;stroke:none"
       id="path53" /><path
       d="M 1833.7567,1016.7829 L 1833.7567,885.0192 L 1854.6746,885.0192 L 1854.6746,1016.7829 L 1833.7567,1016.7829 z"
       style="fill:#231f20;fill-opacity:1;fill-rule:nonzero;stroke:none"
       id="path55" /><path
       d="M 1880.7537,889.3202 C 1884.8591,886.5831 1894.8294,883.8136 1904.6041,883.8136 C 1928.2589,883.8136 1945.0718,898.8993 1945.0718,922.5541 C 1945.0718,936.6299 1938.4251,949.337 1921.8076,960.2847 C 1908.3186,968.8864 1903.0402,973.5783 1903.0402,983.7442 C 1903.0402,991.7595 1908.7095,999.7747 1920.6349,999.7747 C 1927.6724,999.7747 1933.1467,997.6243 1936.8612,995.2784 L 1940.5755,1013.2639 C 1937.0565,1015.4143 1929.4319,1017.9558 1921.0258,1017.9558 C 1896.3933,1017.9558 1882.5131,1001.7298 1882.5131,981.2027 C 1882.5131,966.9317 1892.679,953.8333 1907.3409,944.4498 C 1918.0933,937.0208 1924.5447,930.9606 1924.5447,920.4038 C 1924.5447,909.4561 1917.5068,902.0273 1904.6041,902.0273 C 1897.7618,902.0273 1889.1601,904.3733 1884.2726,907.3057 L 1880.7537,889.3202 z"
       style="fill:#231f20;fill-opacity:1;fill-rule:nonzero;stroke:none"
       id="path57" /><path
       d="M 2084.8513,885.0192 L 2105.7693,885.0192 L 2105.7693,941.9083 L 2136.8531,941.9083 L 2136.8531,959.3073 L 2105.7693,959.3073 L 2105.7693,998.6017 L 2139.0038,998.6017 L 2139.0038,1016.7829 L 2084.8513,1016.7829 L 2084.8513,885.0192 z"
       style="fill:#231f20;fill-opacity:1;fill-rule:nonzero;stroke:none"
       id="path59" /><path
       d="M 2166.0602,1016.7829 L 2166.0602,932.5244 C 2166.0602,899.8767 2177.79,883.4227 2201.8357,883.4227 C 2224.5134,883.4227 2238.0026,899.4858 2238.0026,933.5018 L 2238.0026,1016.7829 L 2217.0847,1016.7829 L 2217.0847,929.9829 C 2217.0847,908.4787 2211.0245,901.8317 2201.8357,901.8317 C 2193.6251,901.8317 2186.9782,908.674 2186.9782,929.9829 L 2186.9782,1016.7829 L 2166.0602,1016.7829 z"
       style="fill:#231f20;fill-opacity:1;fill-rule:nonzero;stroke:none"
       id="path61" /><path
       d="M 2288.323,885.0192 L 2288.323,921.7723 C 2288.323,949.1414 2287.7365,967.7134 2286.7591,982.9621 L 2287.15,982.9621 C 2290.8645,969.082 2296.7294,953.2468 2301.6169,941.1262 L 2324.0991,885.0192 L 2343.2576,885.0192 L 2343.2576,1016.7829 L 2324.8809,1016.7829 L 2324.8809,979.4432 C 2324.8809,955.984 2326.0538,935.6525 2327.2268,918.8399 L 2326.8359,918.8399 C 2322.7305,931.5471 2316.0838,948.5549 2311.3916,960.4803 L 2289.1051,1016.7829 L 2269.9466,1016.7829 L 2269.9466,885.0192 L 2288.323,885.0192 z"
       style="fill:#231f20;fill-opacity:1;fill-rule:nonzero;stroke:none"
       id="path63" /><path
       d="M 2375.5924,885.0192 L 2396.3148,885.0192 L 2396.3148,931.938 L 2402.9617,943.6677 L 2425.6395,885.0192 L 2448.3169,885.0192 L 2417.0374,959.8938 L 2447.7304,1016.7829 L 2424.6621,1016.7829 L 2403.9391,972.6009 C 2401.5932,967.127 2399.2472,961.4577 2396.9013,955.984 L 2396.3148,955.984 L 2396.3148,1016.7829 L 2375.5924,1016.7829 L 2375.5924,885.0192 z"
       style="fill:#231f20;fill-opacity:1;fill-rule:nonzero;stroke:none"
       id="path65" /><path
       d="M 2469.704,885.4101 C 2474.7868,884.5957 2481.8247,884.0092 2491.5994,884.0092 C 2510.5626,884.0092 2523.4654,888.1472 2531.0897,896.7489 C 2537.1502,903.2003 2540.6691,911.802 2540.6691,922.7497 C 2540.6691,938.5849 2532.0674,951.0965 2517.0143,955.2019 L 2517.0143,955.7884 C 2529.7214,961.2624 2536.3681,972.4054 2536.3681,984.7216 C 2536.3681,994.1054 2533.4357,1002.5116 2526.9843,1008.1811 C 2518.969,1015.4143 2507.6302,1017.3694 2495.7048,1017.3694 C 2485.7345,1017.3694 2476.7419,1016.392 2469.704,1014.8278 L 2469.704,885.4101 z M 2490.4264,1000.7521 C 2492.1859,1001.3386 2494.7274,1001.5342 2497.8555,1001.5342 C 2510.7579,1001.5342 2515.8413,993.3233 2515.8413,982.3757 C 2515.8413,970.4506 2507.239,961.8489 2496.4869,961.8489 L 2490.4264,961.8489 L 2490.4264,1000.7521 z M 2490.4264,946.209 L 2496.4869,946.209 C 2508.412,946.209 2519.1646,938.3893 2519.1646,922.9453 C 2519.1646,907.8922 2509.7805,900.2679 2497.0734,900.2679 C 2494.3365,900.2679 2492.1859,900.4632 2490.4264,900.8544 L 2490.4264,946.209 z"
       style="fill:#231f20;fill-opacity:1;fill-rule:nonzero;stroke:none"
       id="path67" /><path
       d="M 2612.2983,919.2308 L 2619.3362,885.0192 L 2639.6677,885.0192 L 2612.4939,1016.7829 L 2588.0567,1016.7829 L 2558.7323,885.0192 L 2579.0638,885.0192 L 2586.1017,919.2308 L 2612.2983,919.2308 z M 2588.4476,935.6525 L 2594.3125,965.7587 C 2595.8764,973.9695 2597.8314,986.6767 2599.2,995.8649 L 2599.7865,995.8649 C 2601.1548,986.6767 2602.9142,974.556 2604.6737,965.954 L 2610.148,935.6525 L 2588.4476,935.6525 z"
       style="fill:#231f20;fill-opacity:1;fill-rule:nonzero;stroke:none"
       id="path69" /><path
       d="M 2660.6636,1016.7829 L 2660.6636,932.5244 C 2660.6636,899.8767 2672.3934,883.4227 2696.4391,883.4227 C 2719.1169,883.4227 2732.6061,899.4858 2732.6061,933.5018 L 2732.6061,1016.7829 L 2711.6881,1016.7829 L 2711.6881,929.9829 C 2711.6881,908.4787 2705.6279,901.8317 2696.4391,901.8317 C 2688.2286,901.8317 2681.5816,908.674 2681.5816,929.9829 L 2681.5816,1016.7829 L 2660.6636,1016.7829 z"
       style="fill:#231f20;fill-opacity:1;fill-rule:nonzero;stroke:none"
       id="path71" /><path
       d="M 2770.6105,883.4227 C 2778.2345,883.4227 2783.3176,889.1246 2783.3176,897.9219 C 2783.3176,906.9146 2777.8436,912.3885 2770.6105,912.3885 C 2763.7679,912.3885 2757.903,906.3281 2757.903,897.9219 C 2757.903,889.1246 2763.5726,883.4227 2770.4149,883.4227 L 2770.6105,883.4227 z"
       style="fill:#231f20;fill-opacity:1;fill-rule:nonzero;stroke:none"
       id="path73" /><path
       d="M 2869.414,904.7642 C 2866.286,903.5912 2861.3988,902.4182 2856.5113,902.4182 C 2840.6761,902.4182 2827.3822,915.1254 2827.3822,950.51 C 2827.3822,986.4811 2842.0444,999.5791 2856.316,999.5791 C 2862.5717,999.5791 2865.6995,998.4064 2868.8275,996.8423 L 2872.7374,1014.6325 C 2870.1961,1016.1964 2864.1356,1017.9558 2855.5339,1017.9558 C 2832.0741,1017.9558 2805.2915,999.7747 2805.2915,949.1414 C 2805.2915,908.4787 2822.495,883.8136 2852.6012,883.8136 C 2861.2032,883.8136 2868.0454,885.2148 2871.9556,887.1695 L 2869.414,904.7642 z"
       style="fill:#231f20;fill-opacity:1;fill-rule:nonzero;stroke:none"
       id="path75" /><path
       d="M 2895.8837,1016.7829 L 2895.8837,885.0192 L 2916.8016,885.0192 L 2916.8016,943.0812 L 2948.0811,943.0812 L 2948.0811,885.0192 L 2968.9991,885.0192 L 2968.9991,1016.7829 L 2948.0811,1016.7829 L 2948.0811,962.2397 L 2916.8016,962.2397 L 2916.8016,1016.7829 L 2895.8837,1016.7829 z"
       style="fill:#231f20;fill-opacity:1;fill-rule:nonzero;stroke:none"
       id="path77" /></g></svg>